<svg width="20" height="20" viewBox="0 0 20 20" fill="none" xmlns="http://www.w3.org/2000/svg">
<path d="M9.99996 18.3333C8.86107 18.3333 7.78468 18.1146 6.77079 17.6771C5.7569 17.2396 4.87149 16.6424 4.11454 15.8854C3.3576 15.1285 2.76038 14.2431 2.32288 13.2292C1.88538 12.2153 1.66663 11.1389 1.66663 10C1.66663 8.84722 1.88538 7.76736 2.32288 6.76041C2.76038 5.75347 3.3576 4.87153 4.11454 4.11458C4.87149 3.35764 5.7569 2.76041 6.77079 2.32291C7.78468 1.88541 8.86107 1.66666 9.99996 1.66666C11.1527 1.66666 12.2326 1.88541 13.2395 2.32291C14.2465 2.76041 15.1284 3.35764 15.8854 4.11458C16.6423 4.87153 17.2395 5.75347 17.677 6.76041C18.1145 7.76736 18.3333 8.84722 18.3333 10C18.3333 11.1389 18.1145 12.2153 17.677 13.2292C17.2395 14.2431 16.6423 15.1285 15.8854 15.8854C15.1284 16.6424 14.2465 17.2396 13.2395 17.6771C12.2326 18.1146 11.1527 18.3333 9.99996 18.3333ZM9.99996 16.625C10.3611 16.125 10.6736 15.6042 10.9375 15.0625C11.2013 14.5208 11.4166 13.9444 11.5833 13.3333H8.41663C8.58329 13.9444 8.79857 14.5208 9.06246 15.0625C9.32635 15.6042 9.63885 16.125 9.99996 16.625ZM7.83329 16.2917C7.58329 15.8333 7.36454 15.3576 7.17704 14.8646C6.98954 14.3715 6.83329 13.8611 6.70829 13.3333H4.24996C4.65274 14.0278 5.15621 14.6319 5.76038 15.1458C6.36454 15.6597 7.05552 16.0417 7.83329 16.2917ZM12.1666 16.2917C12.9444 16.0417 13.6354 15.6597 14.2395 15.1458C14.8437 14.6319 15.3472 14.0278 15.75 13.3333H13.2916C13.1666 13.8611 13.0104 14.3715 12.8229 14.8646C12.6354 15.3576 12.4166 15.8333 12.1666 16.2917ZM3.54163 11.6667H6.37496C6.33329 11.3889 6.30204 11.1146 6.28121 10.8437C6.26038 10.5729 6.24996 10.2917 6.24996 10C6.24996 9.70833 6.26038 9.42708 6.28121 9.15625C6.30204 8.88541 6.33329 8.61111 6.37496 8.33333H3.54163C3.47218 8.61111 3.4201 8.88541 3.38538 9.15625C3.35065 9.42708 3.33329 9.70833 3.33329 10C3.33329 10.2917 3.35065 10.5729 3.38538 10.8437C3.4201 11.1146 3.47218 11.3889 3.54163 11.6667ZM8.04163 11.6667H11.9583C12 11.3889 12.0312 11.1146 12.052 10.8437C12.0729 10.5729 12.0833 10.2917 12.0833 10C12.0833 9.70833 12.0729 9.42708 12.052 9.15625C12.0312 8.88541 12 8.61111 11.9583 8.33333H8.04163C7.99996 8.61111 7.96871 8.88541 7.94788 9.15625C7.92704 9.42708 7.91663 9.70833 7.91663 10C7.91663 10.2917 7.92704 10.5729 7.94788 10.8437C7.96871 11.1146 7.99996 11.3889 8.04163 11.6667ZM13.625 11.6667H16.4583C16.5277 11.3889 16.5798 11.1146 16.6145 10.8437C16.6493 10.5729 16.6666 10.2917 16.6666 10C16.6666 9.70833 16.6493 9.42708 16.6145 9.15625C16.5798 8.88541 16.5277 8.61111 16.4583 8.33333H13.625C13.6666 8.61111 13.6979 8.88541 13.7187 9.15625C13.7395 9.42708 13.75 9.70833 13.75 10C13.75 10.2917 13.7395 10.5729 13.7187 10.8437C13.6979 11.1146 13.6666 11.3889 13.625 11.6667ZM13.2916 6.66666H15.75C15.3472 5.97222 14.8437 5.36805 14.2395 4.85416C13.6354 4.34028 12.9444 3.95833 12.1666 3.70833C12.4166 4.16666 12.6354 4.64236 12.8229 5.13541C13.0104 5.62847 13.1666 6.13889 13.2916 6.66666ZM8.41663 6.66666H11.5833C11.4166 6.05555 11.2013 5.47916 10.9375 4.9375C10.6736 4.39583 10.3611 3.875 9.99996 3.375C9.63885 3.875 9.32635 4.39583 9.06246 4.9375C8.79857 5.47916 8.58329 6.05555 8.41663 6.66666ZM4.24996 6.66666H6.70829C6.83329 6.13889 6.98954 5.62847 7.17704 5.13541C7.36454 4.64236 7.58329 4.16666 7.83329 3.70833C7.05552 3.95833 6.36454 4.34028 5.76038 4.85416C5.15621 5.36805 4.65274 5.97222 4.24996 6.66666Z" fill="#1D1B20"/>
</svg>
