<svg width="19" height="19" viewBox="0 0 19 19" fill="none" xmlns="http://www.w3.org/2000/svg">
<g clip-path="url(#clip0_196_219)">
<path d="M13.8542 5.14581H13.8621M5.54168 1.58331H13.4583C15.6445 1.58331 17.4167 3.35552 17.4167 5.54165V13.4583C17.4167 15.6444 15.6445 17.4166 13.4583 17.4166H5.54168C3.35555 17.4166 1.58334 15.6444 1.58334 13.4583V5.54165C1.58334 3.35552 3.35555 1.58331 5.54168 1.58331ZM12.6667 9.00123C12.7644 9.66009 12.6518 10.333 12.3451 10.9242C12.0383 11.5154 11.5529 11.9948 10.958 12.2943C10.363 12.5938 9.68878 12.698 9.03117 12.5922C8.37357 12.4864 7.76607 12.1759 7.29509 11.7049C6.82411 11.2339 6.51363 10.6264 6.40781 9.96882C6.302 9.31121 6.40623 8.63698 6.70568 8.04203C7.00514 7.44707 7.48457 6.96169 8.07579 6.65492C8.667 6.34815 9.3399 6.23561 9.99876 6.33331C10.6708 6.43297 11.293 6.74614 11.7734 7.22656C12.2539 7.70697 12.567 8.32917 12.6667 9.00123Z" stroke="#1E1E1E" stroke-width="1.6" stroke-linecap="round" stroke-linejoin="round"/>
</g>
<defs>
<clipPath id="clip0_196_219">
<rect width="19" height="19" fill="white"/>
</clipPath>
</defs>
</svg>
