<svg width="19" height="19" viewBox="0 0 19 19" fill="none" xmlns="http://www.w3.org/2000/svg">
<path d="M12.6667 6.33331C13.9265 6.33331 15.1346 6.83376 16.0254 7.72456C16.9162 8.61535 17.4167 9.82353 17.4167 11.0833V16.625H14.25V11.0833C14.25 10.6634 14.0832 10.2607 13.7863 9.96373C13.4893 9.6668 13.0866 9.49998 12.6667 9.49998C12.2467 9.49998 11.844 9.6668 11.5471 9.96373C11.2502 10.2607 11.0833 10.6634 11.0833 11.0833V16.625H7.91668V11.0833C7.91668 9.82353 8.41712 8.61535 9.30792 7.72456C10.1987 6.83376 11.4069 6.33331 12.6667 6.33331Z" stroke="#1E1E1E" stroke-width="1.6" stroke-linecap="round" stroke-linejoin="round"/>
<path d="M4.75001 7.12498H1.58334V16.625H4.75001V7.12498Z" stroke="#1E1E1E" stroke-width="1.6" stroke-linecap="round" stroke-linejoin="round"/>
<path d="M3.16668 4.74998C4.04113 4.74998 4.75001 4.0411 4.75001 3.16665C4.75001 2.2922 4.04113 1.58331 3.16668 1.58331C2.29223 1.58331 1.58334 2.2922 1.58334 3.16665C1.58334 4.0411 2.29223 4.74998 3.16668 4.74998Z" stroke="#1E1E1E" stroke-width="1.6" stroke-linecap="round" stroke-linejoin="round"/>
</svg>
