<svg width="19" height="19" viewBox="0 0 19 19" fill="none" xmlns="http://www.w3.org/2000/svg">
<g clip-path="url(#clip0_196_187)">
<path d="M17.8442 5.08252C17.7501 4.7068 17.5586 4.36256 17.289 4.08455C17.0193 3.80654 16.681 3.60462 16.3084 3.49919C14.9467 3.16669 9.50002 3.16669 9.50002 3.16669C9.50002 3.16669 4.05335 3.16669 2.69168 3.53085C2.319 3.63629 1.98075 3.83821 1.71108 4.11622C1.44142 4.39422 1.24989 4.73847 1.15585 5.11419C0.906643 6.49608 0.784744 7.89793 0.791682 9.3021C0.782799 10.7168 0.904706 12.1294 1.15585 13.5217C1.25952 13.8857 1.45534 14.2169 1.72438 14.4831C1.99342 14.7494 2.32658 14.9418 2.69168 15.0417C4.05335 15.4059 9.50002 15.4059 9.50002 15.4059C9.50002 15.4059 14.9467 15.4059 16.3084 15.0417C16.681 14.9362 17.0193 14.7343 17.289 14.4563C17.5586 14.1783 17.7501 13.8341 17.8442 13.4584C18.0915 12.0869 18.2134 10.6957 18.2084 9.3021C18.2172 7.88736 18.0953 6.47482 17.8442 5.08252Z" stroke="#1E1E1E" stroke-width="1.6" stroke-linecap="round" stroke-linejoin="round"/>
<path d="M7.71877 11.8909L12.2708 9.3021L7.71877 6.71335V11.8909Z" stroke="#1E1E1E" stroke-width="1.6" stroke-linecap="round" stroke-linejoin="round"/>
</g>
<defs>
<clipPath id="clip0_196_187">
<rect width="19" height="19" fill="white"/>
</clipPath>
</defs>
</svg>
